<?xml version="1.0" encoding="UTF-8"?>
<svg version="1.1" xmlns="http://www.w3.org/2000/svg" width="128" height="128">
<path d="M0 0 C0.74529968 -0.0065712 1.49059937 -0.0131424 2.25848389 -0.01991272 C4.7209891 -0.03959428 7.18343336 -0.05129899 9.64599609 -0.0612793 C10.9125812 -0.06739259 10.9125812 -0.06739259 12.20475388 -0.07362938 C16.67719018 -0.09447173 21.14959599 -0.1087794 25.62207031 -0.11816406 C30.22178544 -0.12920354 34.8210135 -0.16358001 39.42055702 -0.20333576 C42.97411951 -0.22959465 46.52756776 -0.23786425 50.08121872 -0.24144554 C51.77554984 -0.24629033 53.46987658 -0.25784361 55.16411209 -0.27648354 C67.46946544 -0.40341423 77.46550124 0.45367082 86.79052734 9.2512207 C93.10636599 16.18598341 95.84724528 23.47970638 95.83496094 32.85961914 C95.84167816 33.60521088 95.84839539 34.35080261 95.85531616 35.11898804 C95.87422897 37.57068652 95.87821721 40.02211016 95.88037109 42.47387695 C95.88680472 44.19012562 95.8935335 45.90637321 95.90054321 47.62261963 C95.91249994 51.21694478 95.9162258 54.81117395 95.91503906 58.40551758 C95.9148362 62.9895181 95.94211107 67.57289637 95.97658348 72.15674973 C95.9989301 75.70174938 96.0028742 79.24660127 96.00181961 82.79166412 C96.00416495 84.4804015 96.0129277 86.16914362 96.02848434 87.85781097 C96.13544727 100.6700801 94.95762484 110.52875514 85.83740234 120.1965332 C79.16694638 125.95789806 71.75407977 128.32138312 63.09472656 128.35400391 C62.33821304 128.3605751 61.58169952 128.3671463 60.80226135 128.37391663 C58.29704688 128.39363486 55.79189243 128.40531133 53.28662109 128.4152832 C52.42903324 128.41935873 51.57144539 128.42343426 50.68787003 128.42763329 C46.14526867 128.44849164 41.60269747 128.46279217 37.06005859 128.47216797 C32.38287063 128.48320839 27.70616157 128.51758135 23.02914238 128.55733967 C19.42071693 128.58357447 15.81240417 128.59186606 12.20389175 128.59544945 C10.48082382 128.60030076 8.75776043 128.61187299 7.03478622 128.63048744 C-10.15368831 128.80458512 -10.15368831 128.80458512 -17.45556641 124.17700195 C-18.42769577 123.60946953 -18.42769577 123.60946953 -19.41946411 123.0304718 C-26.33077467 118.85638481 -30.31136829 111.78251508 -32.45556641 104.17700195 C-32.65264541 101.56040436 -32.75947387 99.04921357 -32.76196289 96.43432617 C-32.77028641 95.68219345 -32.77860992 94.93006073 -32.78718567 94.15513611 C-32.81118166 91.68060036 -32.82004684 89.20632905 -32.82666016 86.73168945 C-32.83563746 84.99781216 -32.84475949 83.26393562 -32.85401917 81.53005981 C-32.87048569 77.89705531 -32.87820447 74.26414266 -32.88110352 70.63110352 C-32.88647153 66.00458277 -32.92409567 61.37894166 -32.96984768 56.75266838 C-32.99978607 53.16984004 -33.00683076 49.58721875 -33.00782967 46.00427628 C-33.01200214 44.30042639 -33.02431514 42.59657415 -33.04534721 40.89284897 C-33.18441986 28.64833675 -32.316163 18.18501146 -23.64306641 8.67700195 C-16.50534381 2.18693661 -9.49480944 0.03651061 0 0 Z " fill="#020202" transform="translate(32.45556640625,-0.177001953125)"/>
<path d="M0 0 C5.45244553 3.19146333 11.18581474 3.90544978 17.44921875 3.43359375 C20.38491811 2.37740035 23.08084696 0.9738769 25.82421875 -0.50390625 C26.54738281 -0.87708984 27.27054688 -1.25027344 28.015625 -1.63476562 C31.45193862 -3.28105547 31.45193862 -3.28105547 34.44921875 -5.56640625 C40.76892879 -6.01781411 45.57339678 -4.85144813 51.44921875 -2.56640625 C50.58131984 7.50122111 46.55521745 13.43087991 39.44921875 20.43359375 C40.90844568 20.31949782 42.36662473 20.19193831 43.82421875 20.05859375 C45.04238281 19.95417969 45.04238281 19.95417969 46.28515625 19.84765625 C48.65256066 19.60466787 48.65256066 19.60466787 50.44921875 17.43359375 C50.91212096 14.77116554 50.91212096 14.77116554 51.07421875 11.80859375 C51.14898437 10.80570313 51.22375 9.8028125 51.30078125 8.76953125 C51.37425781 7.61324219 51.37425781 7.61324219 51.44921875 6.43359375 C52.10921875 6.43359375 52.76921875 6.43359375 53.44921875 6.43359375 C54.92754135 9.39023894 54.50954658 12.17589112 54.44921875 15.43359375 C56.42921875 14.77359375 58.40921875 14.11359375 60.44921875 13.43359375 C62.44921875 16.43359375 62.44921875 16.43359375 62.32421875 19.68359375 C60.81787195 26.13936574 57.88876637 30.86956813 52.7734375 35.01953125 C46.81429268 38.64509499 39.82386888 40.39118379 33.19921875 42.4375 C30.2662634 43.35032888 30.2662634 43.35032888 27.51171875 45.62109375 C22.90211003 48.34922952 19.61670378 46.96342342 14.63671875 45.74609375 C11.41858218 45.43059016 9.70384273 45.84581451 6.63671875 46.68359375 C2.668243 47.55959803 0.78884822 47.51081712 -2.67578125 45.37109375 C-3.39894531 44.89414062 -4.12210938 44.4171875 -4.8671875 43.92578125 C-8.32018644 42.00577311 -11.82523877 41.05868868 -15.61328125 39.99609375 C-24.68698035 37.34828998 -30.90665156 33.7930272 -35.55078125 25.43359375 C-36.73529435 21.88005446 -36.81720019 19.16345897 -36.55078125 15.43359375 C-35.05078125 13.49609375 -35.05078125 13.49609375 -33.55078125 12.43359375 C-32.23078125 13.42359375 -30.91078125 14.41359375 -29.55078125 15.43359375 C-29.61265625 14.50546875 -29.67453125 13.57734375 -29.73828125 12.62109375 C-29.55078125 9.43359375 -29.55078125 9.43359375 -26.55078125 6.43359375 C-25.89078125 10.72359375 -25.23078125 15.01359375 -24.55078125 19.43359375 C-20.92078125 19.76359375 -17.29078125 20.09359375 -13.55078125 20.43359375 C-13.55078125 19.77359375 -13.55078125 19.11359375 -13.55078125 18.43359375 C-14.14761719 18.16933594 -14.74445312 17.90507812 -15.359375 17.6328125 C-21.16951396 14.45328904 -24.51635103 8.5368844 -26.55078125 2.43359375 C-26.59399438 0.76748739 -26.60195165 -0.90052529 -26.55078125 -2.56640625 C-15.36281461 -6.20660863 -9.93001896 -6.34122191 0 0 Z " fill="#FAFAFA" transform="translate(51.55078125,9.56640625)"/>
<path d="M0 0 C5.45244553 3.19146333 11.18581474 3.90544978 17.44921875 3.43359375 C20.38491811 2.37740035 23.08084696 0.9738769 25.82421875 -0.50390625 C26.54738281 -0.87708984 27.27054688 -1.25027344 28.015625 -1.63476562 C31.45193862 -3.28105547 31.45193862 -3.28105547 34.44921875 -5.56640625 C40.18532986 -5.8395544 40.18532986 -5.8395544 42.44921875 -5.56640625 C43.43921875 -4.57640625 43.43921875 -4.57640625 44.44921875 -3.56640625 C43.35609375 -3.38078125 42.26296875 -3.19515625 41.13671875 -3.00390625 C37.18308433 -1.91003841 37.18308433 -1.91003841 35.57421875 1.74609375 C33.81049268 7.52719588 33.05320917 12.3944477 33.44921875 18.43359375 C34.43921875 19.09359375 35.42921875 19.75359375 36.44921875 20.43359375 C35.85109375 20.96984375 35.25296875 21.50609375 34.63671875 22.05859375 C32.24510831 24.31164686 32.24510831 24.31164686 31.51171875 27.49609375 C28.49162588 31.79743815 25.12021361 32.01122016 20.1015625 32.9765625 C14.53149638 33.67356543 9.05017253 33.68109907 3.44921875 33.43359375 C4.43921875 34.09359375 5.42921875 34.75359375 6.44921875 35.43359375 C5.44921875 38.43359375 5.44921875 38.43359375 2.44921875 40.43359375 C0.26171875 40.05859375 0.26171875 40.05859375 -1.55078125 39.43359375 C-1.77765625 38.48484375 -2.00453125 37.53609375 -2.23828125 36.55859375 C-3.43895447 32.27297911 -5.45037467 28.49014143 -7.52734375 24.5703125 C-8.55078125 22.43359375 -8.55078125 22.43359375 -8.55078125 20.43359375 C-9.21078125 20.10359375 -9.87078125 19.77359375 -10.55078125 19.43359375 C-9.56078125 19.10359375 -8.57078125 18.77359375 -7.55078125 18.43359375 C-7.72070738 10.30803509 -9.43373447 4.43713089 -13.55078125 -2.56640625 C-15.53078125 -2.56640625 -17.51078125 -2.56640625 -19.55078125 -2.56640625 C-19.88078125 -3.22640625 -20.21078125 -3.88640625 -20.55078125 -4.56640625 C-12.18598875 -6.91900414 -6.92836921 -4.42439504 0 0 Z " fill="#D0D0D0" transform="translate(51.55078125,9.56640625)"/>
<path d="M0 0 C1.875 2.1875 1.875 2.1875 3 5 C3.53560547 6.32257812 3.53560547 6.32257812 4.08203125 7.671875 C5.33497921 12.21447783 4.99880747 16.5225867 4.65820312 21.16601562 C4.51014736 25.16352115 4.80044042 26.75303673 7.3515625 29.91015625 C13.06318283 34.4171133 18.13978446 34.2969863 25.14453125 33.53125 C29.22971155 32.77121646 31.08549884 31.99327147 34 29 C34.90344566 25.77340834 35.0404717 22.97779628 34.90234375 19.640625 C34.66932523 13.11610646 35.84726203 8.71215624 39 3 C39.61875 1.7315625 39.61875 1.7315625 40.25 0.4375 C43.28023799 -2.05162406 46.1918261 -1.36268323 50 -1 C50.99 -0.01 50.99 -0.01 52 1 C50.906875 1.185625 49.81375 1.37125 48.6875 1.5625 C44.73386558 2.65636784 44.73386558 2.65636784 43.125 6.3125 C41.36127393 12.09360213 40.60399042 16.96085395 41 23 C41.99 23.66 42.98 24.32 44 25 C43.401875 25.53625 42.80375 26.0725 42.1875 26.625 C39.79588956 28.87805311 39.79588956 28.87805311 39.0625 32.0625 C36.04240713 36.3638444 32.67099486 36.57762641 27.65234375 37.54296875 C22.08227763 38.23997168 16.60095378 38.24750532 11 38 C11.99 38.66 12.98 39.32 14 40 C13 43 13 43 10 45 C7.8125 44.625 7.8125 44.625 6 44 C5.773125 43.05125 5.54625 42.1025 5.3125 41.125 C4.11182678 36.83938536 2.10040658 33.05654768 0.0234375 29.13671875 C-1 27 -1 27 -1 25 C-1.66 24.67 -2.32 24.34 -3 24 C-2.01 23.67 -1.02 23.34 0 23 C-0.16992613 14.87444134 -1.88295322 9.00353714 -6 2 C-7.98 2 -9.96 2 -12 2 C-12.33 1.34 -12.66 0.68 -13 0 C-8.33125915 -1.31308336 -4.68518513 -1.05794503 0 0 Z " fill="#E6E6E6" transform="translate(44,5)"/>
<path d="M0 0 C2.51610666 3.77416 2.71109099 6.63815319 2 11 C0.23707183 16.04666563 -1.89153134 19.96542925 -5.8125 23.625 C-9.69068471 25.29794243 -12.89789972 26.03740374 -17 25 C-22.3426619 21.98810096 -25.32830957 17.90008386 -27 12 C-27.21590656 8.64854142 -27.1821049 5.352079 -27 2 C-24.58149677 4.245753 -22.76531628 6.3555814 -20.9375 9.125 C-19.1449461 12.17781028 -19.1449461 12.17781028 -16 14 C-12.67186676 14.83533882 -12.67186676 14.83533882 -9 14 C-4.38580724 10.24922761 -1.31491759 5.84407817 0 0 Z " fill="#EFEFEF" transform="translate(77,99)"/>
<path d="M0 0 C1 2 1 2 0.4621582 3.92138672 C-2.52471989 11.23096404 -6.10793427 18.15665376 -9.8125 25.125 C-14.97165115 34.9128487 -19.82439979 44.7493724 -24 55 C-24.33 55 -24.66 55 -25 55 C-25.66495318 44.80405121 -21.34718546 35.99766292 -17 27 C-16.70432129 26.36690918 -16.40864258 25.73381836 -16.10400391 25.08154297 C-9.22537435 10.35462463 -9.22537435 10.35462463 -3.4453125 4.48046875 C-1.77149595 2.85692409 -1.77149595 2.85692409 0 0 Z " fill="#D5D5D5" transform="translate(114,40)"/>
<path d="M0 0 C0.53625 0.680625 1.0725 1.36125 1.625 2.0625 C2.83718655 3.56178337 4.05527789 5.05977886 5.36425781 6.4753418 C9.62728163 11.13153643 12.39444424 16.08527561 15.125 21.75 C15.55876953 22.63526367 15.99253906 23.52052734 16.43945312 24.43261719 C19.36894195 30.48941312 22.07461144 36.54099301 24 43 C24.22171875 43.73347656 24.4434375 44.46695313 24.671875 45.22265625 C25.77758796 49.2196592 26.20693472 52.86130561 26 57 C23.63366176 54.63366176 23.15809486 52.90862066 22.0625 49.75 C19.66537962 43.34585885 16.76762493 37.29008925 13.6875 31.1875 C13.21151367 30.24438965 12.73552734 29.3012793 12.24511719 28.32958984 C10.01646835 23.93348557 7.76773825 19.54805928 5.5078125 15.16796875 C5.13438721 14.43747314 4.76096191 13.70697754 4.3762207 12.9543457 C3.68678705 11.60665085 2.99041916 10.26247195 2.28588867 8.92260742 C0.58192098 5.58816946 0 3.84796334 0 0 Z " fill="#DCDCDC" transform="translate(14,40)"/>
<path d="M0 0 C0.33 0 0.66 0 1 0 C1 2.31 1 4.62 1 7 C-0.65 7.33 -2.3 7.66 -4 8 C-3.76927832 11.92226856 -3.3318376 14.48507958 -1.1875 17.8125 C2.85782646 20.58870444 6.2585326 20.78526632 11.05078125 21.421875 C15.18251636 22.23180453 18.22634219 23.81686068 21 27 C22.04835154 28.97508457 23.05639253 30.97278394 24 33 C2.96507528 28.61234699 2.96507528 28.61234699 -4 19.3125 C-6.8166191 14.64747461 -7.38718398 11.42057572 -7 6 C-5.5 4.0625 -5.5 4.0625 -4 3 C-2.68 3.99 -1.36 4.98 0 6 C0 4.02 0 2.04 0 0 Z " fill="#CBCBCB" transform="translate(22,19)"/>
<path d="M0 0 C0.66 0.66 1.32 1.32 2 2 C1.72560487 8.99707586 -0.97889964 14.29071909 -5.875 19.125 C-11.97913764 24.06138957 -21.12978683 27.5048816 -29 27 C-28.28867335 25.69842357 -27.55504102 24.40902478 -26.8125 23.125 C-26.40644531 22.40570313 -26.00039062 21.68640625 -25.58203125 20.9453125 C-22.32487261 16.94021373 -17.87114479 16.77190837 -13 16.25 C-7.87598527 15.46932822 -7.87598527 15.46932822 -3.875 12.4375 C-1.644702 8.34862033 -0.68158797 4.57782968 0 0 Z " fill="#CFCFCF" transform="translate(112,24)"/>
<path d="M0 0 C4.8577671 0.4739285 9.36609023 1.60803539 13 5 C14.00224072 7.85238826 13.98056083 10.56090699 13.9375 13.5625 C13.95361328 14.33013672 13.96972656 15.09777344 13.98632812 15.88867188 C14.02361865 17.92544501 14.01438895 19.96293635 14 22 C14 22.99 14 23.98 14 25 C7.55435821 17.48275027 1.67730769 9.97556678 0 0 Z " fill="#F7F7F7" transform="translate(34,53)"/>
<path d="M0 0 C-1.29542696 8.78011609 -4.86600939 16.48108095 -11.73046875 22.32421875 C-12.47941406 22.87722656 -13.22835937 23.43023437 -14 24 C-13.76216797 23.24396484 -13.76216797 23.24396484 -13.51953125 22.47265625 C-12.68489093 18.50027039 -12.71647383 14.45214681 -12.65820312 10.40039062 C-12.52061161 7.17818923 -12.44176701 5.44360007 -10.1171875 3.109375 C-6.63931185 1.28701949 -3.97013418 0 0 0 Z " fill="#DADADA" transform="translate(94,53)"/>
<path d="M0 0 C0.4125 0.556875 0.825 1.11375 1.25 1.6875 C4.53979441 6.50362005 4.53979441 6.50362005 9 10 C13.97083124 10.39803635 13.97083124 10.39803635 18.4375 8.5 C18.953125 8.005 19.46875 7.51 20 7 C20.66 7.33 21.32 7.66 22 8 C21.0134467 11.55159187 20.04988367 12.95787602 17.1875 15.375 C14 17 14 17 11.4375 17 C5.80332285 14.68854271 3.30855101 11.28054592 0.69921875 6 C0 4 0 4 0 0 Z " fill="#DBDBDB" transform="translate(52,103)"/>
<path d="M0 0 C1 2 1 2 0.43359375 3.99609375 C-5.16420841 17.71619709 -5.16420841 17.71619709 -9 23 C-11.1875 23.80859375 -11.1875 23.80859375 -13 24 C-14 21 -14 21 -12.7421875 18.0390625 C-12.12601562 16.91242187 -11.50984375 15.78578125 -10.875 14.625 C-10.27429688 13.50351562 -9.67359375 12.38203125 -9.0546875 11.2265625 C-6.99543204 7.99282674 -4.76323272 5.63639581 -2 3 C-1.34 2.01 -0.68 1.02 0 0 Z " fill="#E0E0E0" transform="translate(114,40)"/>
<path d="M0 0 C5.43528998 5.43528998 7.85661425 16.98519906 8.125 24.5 C8.08375 25.325 8.0425 26.15 8 27 C5.50144095 24.50144095 4.84247795 22.25260715 3.625 18.9375 C1.59989584 13.52920996 -0.57606997 8.2405638 -3 3 C-2.01 2.01 -1.02 1.02 0 0 Z " fill="#CDCDCD" transform="translate(32,70)"/>
<path d="M0 0 C0.08121924 1.60332791 0.13929134 3.20784026 0.1875 4.8125 C0.22230469 5.70582031 0.25710937 6.59914063 0.29296875 7.51953125 C0 10 0 10 -1.21875 11.8125 C-3.52140108 13.34760072 -4.94466334 13.30675377 -7.6875 13.1875 C-8.89986328 13.14689453 -8.89986328 13.14689453 -10.13671875 13.10546875 C-10.75160156 13.07066406 -11.36648437 13.03585938 -12 13 C-10.74615087 9.23845262 -8.85799698 7.72808802 -6 5 C-5.0925 4.071875 -4.185 3.14375 -3.25 2.1875 C-1 0 -1 0 0 0 Z " fill="#090909" transform="translate(103,17)"/>
<path d="M0 0 C0.66 0 1.32 0 2 0 C2.97919756 3.07550784 2.98561151 5.02444072 2.125 8.125 C1.94195312 8.80820312 1.75890625 9.49140625 1.5703125 10.1953125 C1 12 1 12 0 14 C0.66 14 1.32 14 2 14 C1 17 1 17 -1 18 C-4.4375 18.3125 -4.4375 18.3125 -8 18 C-9.9375 16 -9.9375 16 -11 14 C-9.72125 13.87625 -8.4425 13.7525 -7.125 13.625 C-3.65209064 13.30957601 -3.65209064 13.30957601 -1 11 C-0.53709779 8.33757179 -0.53709779 8.33757179 -0.375 5.375 C-0.30023438 4.37210938 -0.22546875 3.36921875 -0.1484375 2.3359375 C-0.09945312 1.56507812 -0.05046875 0.79421875 0 0 Z " fill="#C5C5C5" transform="translate(103,16)"/>
<path d="M0 0 C4.21912747 0.4794463 6.79663178 1.16625119 10 4 C9.01 4 8.02 4 7 4 C7.59950296 7.68266103 8.24758891 11.34543185 9 15 C8.01 15 7.02 15 6 15 C5.17988688 13.44148245 4.36923787 11.87798284 3.5625 10.3125 C3.11003906 9.44238281 2.65757813 8.57226562 2.19140625 7.67578125 C1.04008072 5.09001736 0.43679247 2.78643472 0 0 Z " fill="#D7D7D7" transform="translate(34,53)"/>
<path d="M0 0 C0.99 0 1.98 0 3 0 C3 2.97 3 5.94 3 9 C4.32 7.68 5.64 6.36 7 5 C6.48118887 9.1724106 5.28848726 11.25416821 2.4375 14.3125 C1.79683594 15.00988281 1.15617187 15.70726563 0.49609375 16.42578125 C-0.24447266 17.20501953 -0.24447266 17.20501953 -1 18 C-1.33 17.34 -1.66 16.68 -2 16 C-1.67 15.34 -1.34 14.68 -1 14 C-0.76970044 11.62876754 -0.58880058 9.25258057 -0.4375 6.875 C-0.35371094 5.59367187 -0.26992187 4.31234375 -0.18359375 2.9921875 C-0.09271484 1.51105469 -0.09271484 1.51105469 0 0 Z " fill="#D4D4D4" transform="translate(82,59)"/>
<path d="M0 0 C0.556875 0.721875 1.11375 1.44375 1.6875 2.1875 C3.9729976 5.07086423 3.9729976 5.07086423 6.75 7.6875 C9 10 9 10 9 12 C7 13.625 7 13.625 5 15 C4.15733289 13.25447527 3.32619962 11.5033792 2.5 9.75 C2.0359375 8.77546875 1.571875 7.8009375 1.09375 6.796875 C0 4 0 4 0 0 Z " fill="#DBDBDB" transform="translate(14,40)"/>
<path d="M0 0 C0.33 0.66 0.66 1.32 1 2 C3.12576782 2.46651207 3.12576782 2.46651207 5.5625 2.625 C6.38878906 2.69976563 7.21507812 2.77453125 8.06640625 2.8515625 C8.70449219 2.90054687 9.34257813 2.94953125 10 3 C9 6 9 6 7 7 C2.94857881 7.25860135 1.45662331 7.30441554 -2 5 C-2 4.34 -2 3.68 -2 3 C-1.34 3 -0.68 3 0 3 C0 2.01 0 1.02 0 0 Z " fill="#D7D7D7" transform="translate(26,27)"/>
<path d="M0 0 C0.33 0 0.66 0 1 0 C1.33 4.62 1.66 9.24 2 14 C1.34 14 0.68 14 0 14 C-0.33 14.66 -0.66 15.32 -1 16 C-2.32 14.35 -3.64 12.7 -5 11 C-4.01 10.67 -3.02 10.34 -2 10 C-1.93941406 9.36191406 -1.87882812 8.72382813 -1.81640625 8.06640625 C-1.73261719 7.24011719 -1.64882813 6.41382813 -1.5625 5.5625 C-1.48128906 4.73878906 -1.40007813 3.91507813 -1.31640625 3.06640625 C-1 1 -1 1 0 0 Z " fill="#E8E8E8" transform="translate(24,16)"/>
<path d="M0 0 C-0.33 1.98 -0.66 3.96 -1 6 C-4.24208567 5.64950425 -5.61527704 5.43778819 -7.8125 2.9375 C-8.4003125 1.9784375 -8.4003125 1.9784375 -9 1 C-5.57367167 -0.61798838 -3.61944899 -1.34053666 0 0 Z " fill="#181818" transform="translate(79,44)"/>
<path d="M0 0 C0.66 0.66 1.32 1.32 2 2 C1.77631773 7.70389776 0.20906009 11.41562844 -3 16 C-5.25 16.9375 -5.25 16.9375 -7 17 C-5.38731308 14.28775382 -3.75098126 11.62647188 -2 9 C-1.33386665 6.72461677 -1.33386665 6.72461677 -0.875 4.3125 C-0.62363281 3.10013672 -0.62363281 3.10013672 -0.3671875 1.86328125 C-0.24601562 1.24839844 -0.12484375 0.63351563 0 0 Z " fill="#C4C4C4" transform="translate(112,24)"/>
<path d="M0 0 C5.75 -0.125 5.75 -0.125 8 1 C7 4 7 4 4 6 C1.8125 5.625 1.8125 5.625 0 5 C0 3.35 0 1.7 0 0 Z " fill="#080808" transform="translate(50,44)"/>
<path d="M0 0 C1.32 0 2.64 0 4 0 C3.58846263 4.97093824 3.20399168 9.44508386 1 14 C-0.35015859 9.94952424 0.37915002 7.2079832 1 3 C0.01 2.67 -0.98 2.34 -2 2 C-1.34 1.34 -0.68 0.68 0 0 Z " fill="#F6F6F6" transform="translate(84,56)"/>
<path d="M0 0 C1 2 1 2 0.44140625 3.9453125 C0.15136719 4.66460937 -0.13867188 5.38390625 -0.4375 6.125 C-0.72496094 6.84945312 -1.01242188 7.57390625 -1.30859375 8.3203125 C-1.53675781 8.87460937 -1.76492187 9.42890625 -2 10 C-2.99 10 -3.98 10 -5 10 C-5.33 10.99 -5.66 11.98 -6 13 C-8.0625 14.1875 -8.0625 14.1875 -10 15 C-8.70904296 9.95353157 -6.78830497 7.51111193 -3 4 C-1.97186389 2.68824014 -0.95915568 1.3630107 0 0 Z " fill="#C9CAC9" transform="translate(114,40)"/>
<path d="M0 0 C0.99 0.33 1.98 0.66 3 1 C2.34 2.65 1.68 4.3 1 6 C-1.31 6.33 -3.62 6.66 -6 7 C-6 6.34 -6 5.68 -6 5 C-6.99 4.67 -7.98 4.34 -9 4 C-7.88625 3.71125 -6.7725 3.4225 -5.625 3.125 C-1.99708908 2.30758671 -1.99708908 2.30758671 0 0 Z " fill="#D4D4D4" transform="translate(71,110)"/>
<path d="M0 0 C0.66 0 1.32 0 2 0 C2.97919756 3.07550784 2.98561151 5.02444072 2.125 8.125 C1.94195312 8.80820312 1.75890625 9.49140625 1.5703125 10.1953125 C1 12 1 12 0 14 C0.66 14 1.32 14 2 14 C2 14.66 2 15.32 2 16 C0.68 15.34 -0.64 14.68 -2 14 C-1.67 13.01 -1.34 12.02 -1 11 C-0.77820215 9.10787263 -0.59385985 7.21115528 -0.4375 5.3125 C-0.35371094 4.31863281 -0.26992187 3.32476563 -0.18359375 2.30078125 C-0.12300781 1.54152344 -0.06242187 0.78226563 0 0 Z " fill="#B5B4B4" transform="translate(103,16)"/>
<path d="M0 0 C0.33 0 0.66 0 1 0 C1.16774403 2.77077198 1.33423936 5.54160927 1.5 8.3125 C1.54769531 9.09818359 1.59539063 9.88386719 1.64453125 10.69335938 C1.71220703 11.8293457 1.71220703 11.8293457 1.78125 12.98828125 C1.82314453 13.68477783 1.86503906 14.38127441 1.90820312 15.09887695 C1.98700971 16.73096966 2 18.36600579 2 20 C0.99406757 18.8803014 -0.0045849 17.7540588 -1 16.625 C-1.8353125 15.68527344 -1.8353125 15.68527344 -2.6875 14.7265625 C-4 13 -4 13 -4 11 C-3.34 11 -2.68 11 -2 11 C-2 11.66 -2 12.32 -2 13 C-1.34 13 -0.68 13 0 13 C0 8.71 0 4.42 0 0 Z " fill="#A8A8A8" transform="translate(46,58)"/>
<path d="M0 0 C2.31 0.33 4.62 0.66 7 1 C7 1.66 7 2.32 7 3 C8.65 2.67 10.3 2.34 12 2 C10.1875 4 10.1875 4 8 6 C7.01 6 6.02 6 5 6 C4.67 4.68 4.34 3.36 4 2 C2.68 1.67 1.36 1.34 0 1 C0 0.67 0 0.34 0 0 Z " fill="#E3E3E3" transform="translate(58,114)"/>
<path d="M0 0 C0.33 0 0.66 0 1 0 C1 1.65 1 3.3 1 5 C2.32 4.67 3.64 4.34 5 4 C3.75023244 7.65316671 3.32901247 8.78065836 0 11 C-0.66 10.67 -1.32 10.34 -2 10 C-1.34 6.7 -0.68 3.4 0 0 Z " fill="#ECECEC" transform="translate(105,20)"/>
<path d="M0 0 C0.33 0 0.66 0 1 0 C1 4.62 1 9.24 1 14 C-0.97179598 11.04230603 -1.36929854 9.83582038 -1.75 6.4375 C-1.84796875 5.65246094 -1.9459375 4.86742187 -2.046875 4.05859375 C-2 2 -2 2 0 0 Z " fill="#D2D2D2" transform="translate(45,57)"/>
<path d="M0 0 C0.99 0.33 1.98 0.66 3 1 C3.66 0.67 4.32 0.34 5 0 C4.25 4.75 4.25 4.75 2 7 C2 6.01 2 5.02 2 4 C1.01 4.33 0.02 4.66 -1 5 C-0.67 3.35 -0.34 1.7 0 0 Z " fill="#CDCDCD" transform="translate(99,62)"/>
<path d="M0 0 C2.12038635 2.61514317 4.13091744 5.19637616 6 8 C4.68 8.33 3.36 8.66 2 9 C0.50178941 5.62902617 0 3.79557881 0 0 Z " fill="#C9C9C9" transform="translate(14,40)"/>
<path d="M0 0 C0.99 0.33 1.98 0.66 3 1 C1.515 4.465 1.515 4.465 0 8 C-0.33 8 -0.66 8 -1 8 C-1.04241723 5.66705225 -1.04092937 3.33297433 -1 1 C-0.67 0.67 -0.34 0.34 0 0 Z " fill="#CACACA" transform="translate(90,87)"/>
</svg>
